<mxfile host="65bd71144e">
    <diagram id="wzncKD59PbUt1tLin1Bl" name="Page-1">
        <mxGraphModel dx="474" dy="288" grid="1" gridSize="10" guides="1" tooltips="1" connect="1" arrows="1" fold="1" page="1" pageScale="1" pageWidth="850" pageHeight="1100" math="0" shadow="0">
            <root>
                <mxCell id="0"/>
                <mxCell id="1" parent="0"/>
                <mxCell id="6" value="title Runner Configuration, Start and Running (hosted only)&#10;&#10;Machine Management Service-&gt;Runner.Listener: Construct .runner configuration file, store token in .credentials&#10;Runner.Listener-&gt;Runner.Listener: Start&#10;note left of Runner.Listener: Load config info from .runner&#10;note left of Runner.Listener: Load OAuth token from .credentials&#10;Runner.Listener-&gt;Actions Service: Connect to Actions Service with OAuth token in .credentials&#10;Actions Service-&gt;Runner.Listener: Workflow job" style="shadow=0;dashed=0;align=left;strokeWidth=1;shape=mxgraph.mermaid.abstract.mermaid;labelBackgroundColor=#ffffff;noLabel=1;theme=default;" vertex="1" parent="1">
                    <mxGeometry x="50" y="50" width="460" height="340" as="geometry"/>
                </mxCell>
            </root>
        </mxGraphModel>
    </diagram>
</mxfile>